<?xml version="1.0" encoding="UTF-8" standalone="no"?>
<svg width="92px" height="41px" viewBox="0 0 92 41" version="1.1" xmlns="http://www.w3.org/2000/svg" xmlns:xlink="http://www.w3.org/1999/xlink">
    <!-- Generator: Sketch 41.1 (35376) - http://www.bohemiancoding.com/sketch -->
    <title>cupslogodark</title>
    <desc>Created with Sketch.</desc>
    <defs></defs>
    <g id="Page-1" stroke="none" stroke-width="1" fill="none" fill-rule="evenodd">
        <g id="OC-CUPS" transform="translate(-30.000000, -30.000000)" fill="#33393F">
            <g id="cupslogodark" transform="translate(30.000000, 30.000000)">
                <path d="M40.0010588,29.9944392 C40.0010588,32.8825176 39.3877255,35.2510667 38.1646667,37.1018902 C36.7828627,39.2052627 34.775098,40.2551451 32.1395686,40.2551451 C29.0638824,40.2551451 26.9298431,38.9382824 25.7392549,36.300949 C24.9220784,34.4825961 24.5143922,31.7045569 24.5143922,27.9704392 L24.5143922,9.80134118 C24.5143922,8.13812549 24.9689804,6.47671373 25.8799608,4.81169412 C27.2599608,2.26996863 29.347098,1.00000784 32.1395686,1.00000784 C35.1196471,1.00000784 37.2536863,2.12926275 38.5416863,4.38777255 C39.5753333,6.11592941 40.0623922,8.42134118 40.0010588,11.3076157 C40.0010588,12.2492627 39.9848235,12.9708314 39.9541569,13.4723216 C39.9216863,13.9756157 39.6853725,14.2570275 39.2470196,14.3201647 C38.8068627,14.383302 38.0239608,14.3995373 36.892902,14.3688706 C35.3234902,14.3057333 34.6181569,14.2732627 34.775098,14.2732627 C34.2104706,14.2732627 33.9110196,14.0062824 33.8821569,13.4723216 L33.8821569,10.1314588 C33.6927451,8.50071373 33.1100784,7.68353725 32.1395686,7.68353725 C30.8533725,7.68353725 30.2093725,10.4778118 30.2093725,16.0627529 L30.2093725,29.4298118 C30.2093725,30.3083216 30.3356471,31.1399294 30.5863922,31.9246353 C30.9309412,33.0232235 31.4486667,33.5716157 32.1395686,33.5716157 C33.3644314,33.5716157 33.9741569,31.9246353 33.9741569,28.6288706 L33.9741569,27.3120078 C33.9434902,26.7780471 33.9272549,26.4641647 33.9272549,26.3703608 C33.9272549,25.8057333 34.1473333,25.5225176 34.5874902,25.5225176 C36.5645882,25.5225176 38.1321961,25.5387529 39.2939216,25.5694196 C39.7647451,25.5694196 40.0010588,25.8364 40.0010588,26.3703608 C40.0299216,27.1857333 40.0299216,28.3943608 40.0010588,29.9944392" id="Fill-1"></path>
                <path d="M57.979302,2.69425098 L57.885498,31.7933098 C57.885498,33.6116627 57.4922431,35.2099373 56.7093412,36.5881333 C55.3600078,38.9711137 53.0527922,40.161702 49.789498,40.161702 C46.1185176,40.161702 43.7337333,39.2849961 42.6351451,37.5279765 C41.8829098,36.4005255 41.5058902,34.2231922 41.5058902,30.9941725 L41.5058902,2.69425098 C41.5058902,2.43087843 41.5600078,2.20719216 41.6700471,2.0268 C41.7800863,1.84460392 41.9298118,1.75260392 42.1174196,1.75260392 L47.1539686,1.75260392 C47.6879294,1.75260392 47.9531059,1.98891765 47.9531059,2.45974118 L47.9531059,17.0967608 C47.9224392,25.7898588 47.9062039,30.0254667 47.9062039,29.8071922 C47.9062039,32.2533098 48.5502039,33.4781725 49.8364,33.4781725 C50.9674588,33.4781725 51.5320863,32.2533098 51.5320863,29.8071922 L51.5320863,2.69425098 C51.4996157,2.06648627 51.7034588,1.75260392 52.1418118,1.75260392 C55.2499686,1.75260392 56.9997725,1.77064314 57.3912235,1.80311373 C57.7826745,1.83558431 57.979302,2.13323137 57.979302,2.69425098" id="Fill-3"></path>
                <path d="M68.6175686,13.8495216 C68.6482353,11.7479529 68.5544314,10.2254431 68.3361569,9.28379608 C68.1467451,8.56222745 67.8797647,8.12387451 67.5352157,7.96693333 C67.1888627,7.93446275 66.860549,7.90379608 66.5466667,7.87132549 C66.4203922,7.87132549 66.1858824,7.84065882 65.8395294,7.77752157 C65.7150588,7.7468549 65.6050196,7.80999216 65.5112157,7.96693333 C65.4174118,8.12387451 65.3849412,8.29524706 65.4174118,8.48465882 C65.4174118,10.8369725 65.4318431,14.2427765 65.4643137,18.6984627 C65.4643137,18.9798745 65.619451,19.1855216 65.9351373,19.3099922 C66.0902745,19.3731294 66.2941176,19.3568941 66.5466667,19.2630902 C67.298902,19.1999529 67.7859608,18.9654431 68.0060392,18.5559529 C68.3812549,17.8361882 68.586902,16.2667765 68.6175686,13.8495216 L68.6175686,13.8495216 Z M74.2187451,19.1674824 C74.2187451,21.4602667 73.2139608,23.2335216 71.2061961,24.4872471 C69.7305882,25.3982275 68.1467451,25.8528157 66.4528627,25.8528157 C66.0433725,25.8528157 65.8395294,26.0728941 65.8395294,26.5112471 C65.8395294,29.3668549 65.8088627,33.6511686 65.7457255,39.3623843 C65.7457255,39.8638745 65.572549,40.129051 65.228,40.1615216 C64.1294118,40.2877961 62.4661961,40.2877961 60.2383529,40.1615216 C59.8306667,40.129051 59.6268235,39.9270118 59.6268235,39.5499922 L59.5348235,2.36575686 C59.5348235,2.01940392 59.8,1.83179608 60.3339608,1.79932549 C61.6183529,1.73799216 63.7054902,1.75242353 66.5935686,1.84803137 C68.4443922,1.84803137 70.1382745,2.39642353 71.6770196,3.49501176 C73.370902,4.65673725 74.2187451,6.1161098 74.2187451,7.87132549 L74.2187451,19.1674824 Z" id="Fill-5"></path>
                <path d="M91.2587686,31.2185804 C91.2587686,33.9803843 90.5516314,36.1613255 89.1409647,37.7614039 C87.7284941,39.3614824 85.7351608,40.1624235 83.1627686,40.1624235 C80.9349255,40.1624235 79.0372,39.2983451 77.4695922,37.5719922 C75.8063765,35.7211686 75.0072392,33.320149 75.0703765,30.3707373 C75.0703765,29.8692471 75.0866118,29.0538745 75.1154745,27.9246196 C75.1479451,27.2643843 75.3211216,26.9360706 75.6350039,26.9360706 C75.9488863,26.9360706 76.8346118,26.9054039 78.2939843,26.8404627 C79.7515529,26.7773255 80.6372784,26.7466588 80.9511608,26.7466588 C81.2650431,26.7466588 81.4237882,27.156149 81.4237882,27.9697176 L81.4237882,30.2769333 C81.4237882,32.5372471 82.0335137,33.666502 83.2583765,33.666502 C84.2306902,33.666502 84.7466118,32.8962275 84.8115529,31.3592863 L84.9053569,28.7237569 C84.9342196,27.9408549 84.120651,26.7322275 82.4592392,25.0996784 C79.6649647,22.3378745 78.1280235,20.784698 77.8466118,20.440149 C76.1815922,18.4937176 75.3517882,16.7204627 75.3517882,15.1203843 L75.3517882,11.1192863 C75.3517882,8.26548235 76.0264549,5.98893333 77.3757882,4.29505098 C78.8171216,2.44422745 80.9204941,1.4863451 83.6804941,1.42320784 C85.9408078,1.39254118 87.7429255,2.17724706 89.0940627,3.77732549 C90.3477882,5.2836 90.9755529,7.27693333 90.9755529,9.75552157 L90.9755529,14.415051 C90.9755529,14.8858745 90.8023765,15.1366196 90.4578275,15.1690902 C89.548651,15.2628941 87.8385333,15.2628941 85.3292784,15.1690902 C84.9215922,15.1690902 84.717749,14.9327765 84.717749,14.4619529 C84.6852784,13.7403843 84.717749,12.4848549 84.8115529,10.6953647 C84.8422196,10.0369333 84.7249647,9.38571765 84.4579843,8.74352157 C84.1910039,8.09952157 83.8374353,7.77842353 83.3990824,7.77842353 C82.1760235,7.77842353 81.5626902,8.81387451 81.5626902,10.8847765 L81.5626902,13.332698 C81.5626902,14.3050118 82.396102,15.6868157 84.0593176,17.474502 C85.6269255,19.1377176 87.1945333,20.8009333 88.7639451,22.464149 C90.4271608,24.535051 91.2587686,26.3696392 91.2587686,27.9697176 L91.2587686,31.2185804 Z" id="Fill-8"></path>
                <path d="M10.8054902,37.8214745 C8.97811765,37.7096314 7.76227451,37.2640627 6.93788235,36.7842196 C8.27639216,38.7793569 9.74478431,40.0439059 11.2853333,40.0439059 C12.8132549,40.0439059 14.2672157,38.7973961 15.594902,36.8365333 C14.7723137,37.2947294 13.5853333,37.7114353 11.8319216,37.8196706 C11.8319216,37.8196706 10.8433725,37.8286902 10.8054902,37.8214745 M20.0830588,11.0494745 C20.1804706,11.1108078 20.24,11.2118275 20.3049412,11.3056314 C17.7505882,12.5864157 14.9364706,13.3765333 11.9383529,13.4811608 C8.4892549,13.6020235 5.22235294,12.8010824 2.27835294,11.3543373 C2.34690196,11.2370824 2.42627451,11.1216314 2.54352941,11.0494745 C5.55427451,9.2004549 9.91796078,9.1084549 11.3123922,9.13190588 C11.4747451,9.13010196 11.684,9.13010196 11.9185098,9.13190588 C11.7200784,8.44100392 11.637098,7.71041569 11.6984314,6.93653333 C11.7669804,6.07606275 11.9618039,5.3364549 12.2937255,4.67802353 C12.4741176,4.32625882 13.271451,3.02563137 13.9118431,2.97151373 C14.1625882,2.98774902 14.3465882,3.05810196 14.4764706,3.21684706 C14.6081569,3.37559216 14.6712941,3.59206275 14.651451,3.82116078 C14.628,4.12241569 14.5053333,4.36414118 14.2545882,4.75559216 C13.8667451,5.37433725 13.639451,6.14821961 13.5600784,7.11872941 C13.4843137,8.08021961 13.6141961,8.74406275 13.7639216,9.23112157 C15.6688627,9.40429804 18.1510588,9.86429804 20.0830588,11.0494745 M22.5706667,12.7992784 C22.5706667,6.37010196 17.8570196,1.16578824 11.9257255,0.8032 C11.8409412,0.913239216 11.7489412,1.02327843 11.6136471,1.15857255 C11.1175686,1.66367059 10.764,2.35818039 10.5385098,3.27457255 C10.2047843,4.61488627 10.4104314,5.4446902 10.5475294,5.99308235 C10.6106667,6.25104314 10.6629804,6.45488627 10.6413333,6.66774902 C10.5890196,7.18367059 10.2661176,7.41276863 9.97027451,7.41276863 L9.72854902,7.36767059 C9.23788235,7.18186667 8.85545098,6.41700392 8.58666667,5.09292549 C8.44956863,4.29559216 8.48384314,3.48923922 8.68588235,2.68108235 C8.85364706,1.99739608 9.12243137,1.43457255 9.45796078,0.931278431 C4.0985098,1.87112157 0,6.80484706 0,12.7992784 C0,17.0240627 2.03482353,26.8337882 5.1105098,33.4541804 L3.16047059,19.271749 C5.97639216,20.2260235 9.016,20.7184941 12.1872941,20.6084549 C14.7362353,20.5182588 17.1787451,20.0564549 19.4643137,19.2843765 L17.5359216,33.302651 C20.5701176,26.6858667 22.5706667,16.9915922 22.5706667,12.7992784" id="Fill-11"></path>
            </g>
        </g>
    </g>
</svg>